<?xml version="1.0" encoding="UTF-8" standalone="no"?>
<svg width="156px" height="170px" viewBox="0 0 156 170" version="1.1" xmlns="http://www.w3.org/2000/svg" xmlns:xlink="http://www.w3.org/1999/xlink">
    <!-- Generator: Sketch 3.6 (26304) - http://www.bohemiancoding.com/sketch -->
    <title>fa-user</title>
    <desc>Created with Sketch.</desc>
    <defs></defs>
    <g id="Introduction" stroke="none" stroke-width="1" fill="none" fill-rule="evenodd">
        <g id="fa-user" transform="translate(3.000000, -1.000000)" fill="rgb(255,18,25)">
            <path d="M5.21470588,163.076471 C10.5617647,168.229412 17.6911765,170.805882 26.6029412,170.805882 L123.255882,170.805882 C132.167647,170.805882 139.297059,168.229412 144.644118,163.076471 C149.991176,157.932353 152.761765,150.997059 152.761765,142.279412 C152.761765,138.326471 152.567647,134.558824 152.364706,130.8 C152.170588,127.032353 151.570588,123.070588 150.785294,118.720588 C149.991176,114.361765 149.002941,110.4 147.811765,106.835294 C146.620588,103.067647 145.041176,99.5029412 143.055882,95.9382353 C141.079412,92.5764706 138.9,89.4 136.323529,87.0264706 C133.747059,84.6529412 130.579412,82.6676471 126.820588,81.0882353 C123.052941,79.7029412 118.897059,78.9088235 114.344118,78.9088235 C113.744118,78.9088235 112.164706,79.7029412 109.782353,81.2823529 C107.408824,82.8705882 104.638235,84.6529412 101.470588,86.4352941 C98.4970588,88.4117647 94.5352941,90.1941176 89.5852941,91.7823529 C84.6352941,93.3617647 79.6852941,94.1558824 74.7352941,94.1558824 C69.9794118,94.1558824 65.0294118,93.3617647 60.0794118,91.7823529 C55.1205882,90.1941176 51.1676471,88.4117647 48.1941176,86.4352941 C45.0264706,84.6529412 42.2470588,82.8705882 39.8735294,81.2823529 C37.5,79.7029412 35.9117647,78.9088235 35.3205882,78.9088235 C30.7676471,78.9088235 26.6029412,79.7029412 22.8441176,81.0882353 C19.2794118,82.6676471 16.1117647,84.6529412 13.5352941,87.0264706 C10.9588235,89.4 8.58529412,92.5764706 6.6,95.9382353 C4.62352941,99.5029412 3.03529412,103.067647 1.85294118,106.835294 C0.855882353,110.4 -0.132352941,114.361765 -0.926470588,118.720588 C-1.71176471,123.070588 -2.31176471,127.032353 -2.50588235,130.8 C-2.70882353,134.558824 -2.90294118,138.326471 -2.90294118,142.279412 C-2.90294118,150.997059 -0.132352941,157.932353 5.21470588,163.076471 L5.21470588,163.076471 Z M74.9294118,86.0382353 C86.6117647,86.0382353 96.5205882,81.8735294 104.832353,73.5617647 C113.152941,65.2411765 117.308824,55.3411765 117.308824,43.4558824 C117.308824,31.7735294 113.152941,21.8735294 104.832353,13.5529412 C96.5205882,5.23235294 86.6117647,1.07647059 74.9294118,1.07647059 C63.0441176,1.07647059 53.1441176,5.23235294 44.8235294,13.5529412 C36.5117647,21.8735294 32.3470588,31.7735294 32.3470588,43.4558824 C32.3470588,55.3411765 36.5117647,65.2411765 44.8235294,73.5617647 C53.1441176,81.8735294 63.0441176,86.0382353 74.9294118,86.0382353 L74.9294118,86.0382353 Z" id="Fill-51"></path>
        </g>
    </g>
</svg>
