<?xml version="1.0" encoding="UTF-8" standalone="no"?>
<svg width="312px" height="340px" version="1.1" xmlns="http://www.w3.org/2000/svg" xmlns:xlink="http://www.w3.org/1999/xlink">
    <!-- Generator: Sketch 3.6 (26304) - http://www.bohemiancoding.com/sketch -->
    <title>fa-user-md</title>
    <desc>Created with Sketch.</desc>
    <defs></defs>
    <g id="Introduction" stroke="none" stroke-width="1" fill="none" fill-rule="evenodd">
        <g id="fa-user-md" transform="translate(6.000000, -3.000000)" fill="rgb(109,158,225)">
            <path d="M10.4294118,327.917647 C21.1235294,337.817647 35.3823529,342.970588 53.2058824,342.970588 L246.511765,342.970588 C264.335294,342.970588 278.594118,337.817647 289.288235,327.917647 C299.982353,317.611765 305.523529,303.741176 305.523529,285.917647 C305.523529,276.017647 305.135294,266.523529 304.341176,257.011765 C303.547059,247.905882 301.570588,237.6 299.188235,226.517647 C296.417647,215.417647 292.852941,205.517647 288.494118,197.205882 C284.135294,188.876471 278.188235,180.952941 270.670588,174.617647 C262.747059,167.894118 254.029412,163.129412 244.129412,161.152941 C245.311765,163.923529 246.105882,166.694118 246.9,169.870588 C247.694118,173.029412 248.1,176.594118 248.488235,180.158824 C248.876471,184.129412 248.876471,187.305882 248.876471,189.670588 L248.876471,199.976471 L248.876471,209.470588 C257.594118,214.623529 264.335294,221.364706 269.488235,230.082353 C274.623529,239.188235 277.005882,248.294118 277.005882,258.6 L277.005882,277.994118 C281.752941,282.352941 284.135294,287.505882 284.135294,293.841176 C284.135294,299.788235 282.158824,304.535294 277.8,308.505882 C273.847059,312.864706 268.694118,314.841176 263.135294,314.841176 C257.205882,314.841176 252.052941,312.864706 248.1,308.505882 C243.741176,304.535294 241.747059,299.788235 241.747059,293.841176 C241.747059,287.505882 244.129412,282.352941 248.876471,277.994118 L248.876471,258.6 C248.876471,250.676471 246.105882,244.341176 240.564706,238.782353 C234.617647,232.852941 228.282353,230.082353 220.358824,230.082353 C212.841176,230.082353 206.1,232.852941 200.558824,238.782353 C195.017647,244.341176 192.247059,250.676471 192.247059,258.6 L192.247059,277.994118 C196.994118,282.352941 199.376471,287.505882 199.376471,293.841176 C199.376471,299.788235 197.382353,304.535294 193.041176,308.505882 C189.070588,312.864706 183.917647,314.841176 177.988235,314.841176 C172.041176,314.841176 167.294118,312.864706 162.935294,308.505882 C158.964706,304.535294 156.6,299.788235 156.6,293.841176 C156.6,287.505882 158.964706,282.352941 163.729412,277.994118 L163.729412,258.6 C163.729412,242.752941 169.270588,229.288235 180.352941,218.594118 C191.452941,207.494118 204.917647,201.952941 220.764706,201.952941 L220.358824,187.694118 C220.358824,178.588235 218.788235,171.458824 215.223529,167.1 C195.405882,182.541176 173.629412,190.076471 149.858824,190.076471 C125.7,190.076471 103.905882,182.541176 84.4941176,167.1 C80.9294118,171.458824 78.9529412,178.588235 78.9529412,187.694118 L78.9529412,232.447059 C87.2823529,235.623529 94.0058824,240.776471 99.1588235,248.294118 C104.7,255.423529 107.082353,263.735294 107.082353,272.452941 C107.082353,284.347059 103.111765,294.247059 94.8,302.558824 C86.4882353,310.888235 76.5882353,314.841176 64.6941176,314.841176 C53.2058824,314.841176 43.3058824,310.888235 34.9941176,302.558824 C26.6647059,294.247059 22.3058824,284.347059 22.3058824,272.452941 C22.3058824,263.735294 25.0941176,255.423529 30.2294118,248.294118 C35.3823529,240.776471 42.1235294,235.623529 50.8411765,232.447059 L50.8411765,187.694118 C50.8411765,177.794118 52.4117647,168.670588 55.5882353,161.152941 C45.6882353,163.129412 36.9705882,167.894118 29.0470588,174.617647 C21.5294118,180.952941 15.5823529,188.876471 11.2235294,197.205882 C6.86470588,205.517647 3.3,215.417647 0.529411765,226.517647 C-1.85294118,237.6 -3.82941176,247.905882 -4.62352941,257.011765 C-5.41764706,266.523529 -5.80588235,276.017647 -5.80588235,285.917647 C-5.80588235,303.741176 -0.264705882,317.611765 10.4294118,327.917647 L10.4294118,327.917647 Z M64.6941176,286.711765 C68.6647059,286.711765 71.8235294,285.141176 74.5941176,282.352941 C77.3647059,279.582353 78.9529412,276.423529 78.9529412,272.452941 C78.9529412,268.888235 77.3647059,265.729412 74.5941176,262.958824 C71.8235294,260.170588 68.6647059,258.6 64.6941176,258.6 C61.1294118,258.6 57.5647059,260.170588 54.7941176,262.958824 C52.0235294,265.729412 50.8411765,268.888235 50.8411765,272.452941 C50.8411765,276.423529 52.0235294,279.582353 54.7941176,282.352941 C57.5647059,285.141176 61.1294118,286.711765 64.6941176,286.711765 L64.6941176,286.711765 Z M149.858824,173.435294 C173.223529,173.435294 193.041176,165.123529 209.664706,148.482353 C226.305882,131.841176 234.617647,112.041176 234.617647,88.2705882 C234.617647,64.9058824 226.305882,45.0882353 209.664706,28.4647059 C193.041176,11.8235294 173.223529,3.51176471 149.858824,3.51176471 C126.088235,3.51176471 106.288235,11.8235294 89.6470588,28.4647059 C73.0235294,45.0882353 64.6941176,64.9058824 64.6941176,88.2705882 C64.6941176,112.041176 73.0235294,131.841176 89.6470588,148.482353 C106.288235,165.123529 126.088235,173.435294 149.858824,173.435294 L149.858824,173.435294 Z" id="Fill-61"></path>
        </g>
    </g>
</svg>
